<?xml version="1.0" standalone="no"?>
<!DOCTYPE svg PUBLIC "-//W3C//DTD SVG 20010904//EN"
 "http://www.w3.org/TR/2001/REC-SVG-20010904/DTD/svg10.dtd">
<svg version="1.0" xmlns="http://www.w3.org/2000/svg"
 width="1024.000000pt" height="1024.000000pt" viewBox="0 0 1024.000000 1024.000000"
 preserveAspectRatio="xMidYMid meet">
<metadata>
Created by potrace 1.11, written by Peter Selinger 2001-2013
</metadata>
<g transform="translate(0.000000,1024.000000) scale(0.100000,-0.100000)"
fill="#000000" stroke="none">
<path d="M1803 6353 c2 -1171 6 -2141 9 -2158 4 -16 9 -67 13 -112 3 -45 7
-90 9 -100 3 -17 8 -46 21 -133 2 -19 6 -44 9 -55 2 -11 7 -40 11 -65 13 -83
85 -364 121 -470 245 -719 693 -1241 1344 -1565 196 -98 509 -210 698 -250 9
-2 49 -10 87 -19 77 -16 230 -43 285 -50 19 -2 58 -7 85 -10 28 -4 66 -8 85
-11 220 -27 812 -27 1030 0 19 2 55 7 80 10 25 3 56 7 70 10 14 2 45 6 70 9
25 3 56 8 70 11 14 3 41 8 60 11 144 23 472 113 595 164 11 5 56 23 100 40
136 55 344 161 432 221 23 16 46 29 51 29 6 0 12 3 14 8 2 4 26 22 53 41 347
238 659 602 852 996 117 240 229 577 269 815 2 14 6 34 9 46 7 30 33 221 40
290 3 33 9 77 12 99 4 22 8 1004 10 2183 l4 2142 -986 0 -985 0 -1 -2022 c-1
-1113 -2 -2041 -4 -2063 -3 -57 -15 -179 -19 -201 -2 -11 -7 -39 -11 -64 -59
-361 -213 -654 -443 -842 -146 -119 -349 -207 -565 -245 -142 -25 -455 -25
-582 1 -373 75 -592 212 -777 485 -92 134 -186 376 -212 541 -3 14 -8 45 -12
70 -13 77 -26 196 -29 270 -2 25 -3 951 -4 2058 l-1 2012 -985 0 -986 0 4
-2127z"/>
</g>
</svg>
